<svg version="1.0" xmlns="http://www.w3.org/2000/svg" width="524.000000pt" height="524.000000pt"
    viewBox="0 0 524.000000 524.000000" preserveAspectRatio="xMidYMid meet">

    <g transform="translate(0.000000,524.000000) scale(0.100000,-0.100000)" fill="currentColor" stroke="none">
        <path d="M2555 4541 c-103 -47 -589 -495 -820 -757 -210 -238 -401 -514 -510
-739 -121 -248 -168 -422 -180 -665 -23 -464 146 -890 490 -1236 169 -170 349
-283 596 -375 156 -57 262 -73 484 -73 282 -1 430 32 671 149 212 104 384 236
522 399 334 399 460 899 351 1401 -68 316 -265 680 -559 1034 -245 296 -785
799 -925 862 -50 23 -70 23 -120 0z m149 -348 c39 -31 73 -59 76 -63 3 -3 57
-51 121 -107 393 -347 757 -805 903 -1138 85 -194 125 -384 126 -595 0 -287
-117 -619 -302 -850 -204 -255 -434 -398 -768 -477 -91 -22 -372 -24 -460 -4
-86 20 -270 81 -325 109 -263 132 -494 365 -620 626 -91 190 -125 325 -132
536 -7 191 9 360 45 481 39 128 184 423 250 507 16 20 45 62 64 92 19 30 67
93 106 140 39 47 90 108 113 135 174 207 667 665 716 665 9 0 48 -26 87 -57z" />
        <path d="M2110 3149 c-32 -13 -69 -47 -84 -79 -9 -19 -12 -176 -10 -657 2
-572 4 -634 19 -660 56 -95 174 -94 230 2 25 41 25 45 25 283 l0 242 335 0
335 0 0 -240 c0 -270 6 -304 65 -340 65 -40 167 -15 199 48 11 22 13 150 12
672 -1 605 -2 648 -19 673 -46 71 -125 83 -193 32 -61 -47 -66 -70 -64 -324 1
-124 2 -233 1 -241 -1 -13 -43 -15 -324 -14 -177 1 -328 2 -334 3 -10 1 -13
59 -13 254 0 234 -2 254 -20 285 -37 60 -101 84 -160 61z" />
        <path d="M1754 2899 c-38 -11 -94 -71 -95 -102 -1 -12 -2 -74 -3 -137 l-1
-115 -57 3 c-38 3 -68 -2 -92 -13 -98 -46 -101 -189 -6 -253 30 -21 44 -23 98
-19 l62 5 0 -125 c0 -136 7 -162 59 -206 61 -51 128 -41 181 26 l25 31 0 417
0 418 -29 30 c-17 17 -46 36 -65 41 -41 11 -36 11 -77 -1z" />
        <path d="M3390 2887 c-13 -7 -35 -28 -47 -46 -23 -34 -23 -34 -23 -434 0 -395
0 -400 22 -439 54 -95 176 -89 228 11 17 34 20 59 20 161 l0 120 55 0 c78 0
127 27 155 85 35 73 15 143 -53 186 -25 15 -46 19 -95 17 l-63 -3 2 125 c3
141 -7 176 -64 210 -36 23 -100 26 -137 7z" />
        <path d="M2377 1505 c-19 -19 -40 -50 -47 -69 -9 -30 -8 -40 9 -74 24 -47 70
-88 131 -116 65 -30 229 -30 280 0 82 48 106 145 51 206 l-29 33 -109 0 c-98
0 -113 3 -160 28 -68 35 -83 34 -126 -8z" />
    </g>
</svg>