<!DOCTYPE svg PUBLIC "-//W3C//DTD SVG 1.1//EN" "http://www.w3.org/Graphics/SVG/1.1/DTD/svg11.dtd">
<!-- Uploaded to: SVG Repo, www.svgrepo.com, Transformed by: SVG Repo Mixer Tools -->
<svg version="1.1" id="Layer_1" xmlns="http://www.w3.org/2000/svg" xmlns:xlink="http://www.w3.org/1999/xlink" viewBox="-25.6 -25.6 563.20 563.20" xml:space="preserve" width="800px" height="800px" fill="#000000" stroke="#000000">
<g id="SVGRepo_bgCarrier" stroke-width="0"/>
<g id="SVGRepo_tracerCarrier" stroke-linecap="round" stroke-linejoin="round"/>
<g id="SVGRepo_iconCarrier"> <path style="fill:#F4BD64;" d="M311.108,24.194V9.146H296.06c-18.818,0-34.072,15.255-34.072,34.072v15.048h15.048 C295.854,58.267,311.108,43.012,311.108,24.194z"/> <path style="fill:#4EB79B;" d="M286.32,231.378c5.536,1.926,11.596,1.651,16.889-0.868c28.297-13.458,47.859-42.305,47.859-75.726 c0-46.289-37.525-89.81-83.814-59.829c-46.289-29.981-83.814,13.54-83.814,59.829c0,33.42,19.562,62.268,47.859,75.726 c5.293,2.517,11.353,2.793,16.889,0.868"/> <path style="fill:#40A084;" d="M252.893,231.382h-4.694c-5.538,1.925-11.599,1.652-16.9-0.868 c-28.297-13.465-47.859-42.309-47.859-75.728c0-40.17,28.273-78.259,65.995-68.015c-10.601,7.285-17.732,37.032-17.732,68.015 c0,33.419,8.295,62.263,20.299,75.728C252.299,230.835,252.584,231.132,252.893,231.382z"/> <path style="fill:#D37250;" d="M453.365,503.321H101.682c-21.102,0-40.223-8.563-54.058-22.398 c-13.82-13.835-22.383-32.941-22.383-54.058c0-42.219,34.223-76.457,76.441-76.457h351.683"/> <rect x="249.799" y="381.552" style="fill:#E6E6E6;" width="214.242" height="96.26"/> <path style="fill:#F4BD64;" d="M458.695,232.639H250.134v0.067c-0.589-0.039-1.182-0.067-1.783-0.067H39.791v35.654h19.606v46.468 H39.791v35.654h208.561c0.6,0,1.193-0.027,1.783-0.067v0.067h208.561c14.57,0,26.395-11.825,26.395-26.395v-64.996 C485.091,244.452,473.265,232.639,458.695,232.639z"/> <path style="fill:#E88158;" d="M487.218,394.097H291.81c-18.059,0-32.753,14.708-32.753,32.767 c0,18.073,14.694,32.767,32.753,32.767h195.409v43.689H291.81c-21.102,0-40.223-8.563-54.058-22.398 c-13.82-13.835-22.383-32.941-22.383-54.058c0-42.219,34.223-76.457,76.441-76.457h195.409v43.69H487.218z"/> <rect x="59.402" y="254.982" style="fill:#CCCCCC;" width="190.402" height="73.09"/> <path style="fill:#DDA758;" d="M39.791,314.761h199.303v-46.468H39.791v-35.654h208.561c14.57,0,26.396,11.813,26.396,26.384v64.996 c0,14.57-11.825,26.396-26.395,26.396H39.791V314.761z"/> <path d="M486.987,402.778c4.924,0,8.913-3.991,8.913-8.913v-43.69c0-4.233-2.953-7.77-6.911-8.679 c3.034-5.21,4.782-11.258,4.782-17.71v-64.996c0-19.463-15.84-35.297-35.309-35.297h-40.832c-4.924,0-8.913,3.991-8.913,8.913 s3.99,8.913,8.913,8.913h40.832c9.64,0,17.482,7.837,17.482,17.47v64.996c0,9.602-7.781,17.413-17.368,17.476H278.786 c2.95-5.157,4.646-11.119,4.646-17.474v-64.996c0-6.355-1.697-12.317-4.649-17.474H387.92c4.924,0,8.913-3.991,8.913-8.913 s-3.99-8.913-8.913-8.913H328.97c19.218-17.36,30.782-42.393,30.782-68.94c0-30.934-15.16-59.961-37.721-72.228 c-14.907-8.104-31.754-8.444-48.438-1.223c-1.023-4.291-2.455-9.226-4.425-14.154h7.638c23.701,0,42.985-19.284,42.985-42.985V8.913 c0-4.923-3.99-8.913-8.913-8.913H295.83c-23.701,0-42.985,19.284-42.985,42.985v1.455c-4.135-2.733-8.982-4.394-14.664-4.394 c-4.923,0-8.913,3.991-8.913,8.913s3.991,8.913,8.913,8.913c7.334,0,12.81,10.337,16.206,20.95 c-14.669-4.73-29.269-3.622-42.368,3.5c-22.563,12.267-37.721,41.294-37.721,72.228c0,26.548,11.565,51.582,30.784,68.942H39.562 c-4.923,0-8.913,3.991-8.913,8.913v35.654c0,4.923,3.991,8.913,8.913,8.913h10.696v28.642H39.562c-4.923,0-8.913,3.991-8.913,8.913 v35.654c0,4.923,3.991,8.913,8.913,8.913h9.768c-20.194,15.627-33.233,40.079-33.233,67.534c0,22.79,8.875,44.225,24.994,60.361 c16.127,16.127,37.563,25.009,60.36,25.009h385.537c4.924,0,8.913-3.991,8.913-8.913v-43.689c0-4.923-3.99-8.913-8.913-8.913h-14.26 v-47.706H486.987z M270.671,42.985c0-13.873,11.286-25.158,25.158-25.158h6.135v6.135c0,13.873-11.286,25.158-25.158,25.158h-6.135 V42.985z M234.897,222.228c-25.984-12.358-42.774-38.923-42.774-67.676c0-24.211,11.682-47.471,28.41-56.568 c12.495-6.792,26.893-5.334,41.645,4.22c2.946,1.909,6.741,1.91,9.691,0c14.752-9.554,29.152-11.012,41.646-4.22 c16.727,9.095,28.41,32.357,28.41,56.568c0,28.753-16.79,55.318-42.775,67.676C295.999,223.727,238.048,223.727,234.897,222.228z M48.475,341.271v-17.827h82.74c4.923,0,8.913-3.991,8.913-8.913c0-4.923-3.991-8.913-8.913-8.913H68.085v-28.642h161.867v28.642 h-69.025c-4.923,0-8.913,3.991-8.913,8.913c0,4.923,3.991,8.913,8.913,8.913h77.939c4.923,0,8.913-3.991,8.913-8.913v-46.468 c0-4.923-3.991-8.913-8.913-8.913H48.475v-17.827h199.648c9.639,0,17.482,7.838,17.482,17.47v64.996 c0,9.582-7.75,17.38-17.31,17.474H101.45c-0.115,0-0.228,0.008-0.343,0.008L48.475,341.271L48.475,341.271z M478.074,494.173h-24.94 H291.579c-18.036,0-34.995-7.027-47.756-19.786c-3.481-3.481-9.125-3.481-12.605,0c-3.481,3.481-3.481,9.125,0,12.605 c2.591,2.591,5.331,4.972,8.179,7.182H101.45c-18.035,0-34.995-7.027-47.752-19.783c-12.753-12.766-19.777-29.728-19.777-47.759 c0-37.128,30.108-67.347,67.185-67.534h138.349c-20.194,15.627-33.233,40.079-33.233,67.534c0,13.302,2.979,26.053,8.855,37.897 c2.188,4.409,7.536,6.213,11.946,4.024c4.409-2.188,6.212-7.536,4.024-11.946c-4.643-9.36-6.998-19.445-6.998-29.975 c0-37.166,30.169-67.412,67.3-67.537h167.113c0.076,0,0.152-0.005,0.228-0.006h19.382v25.863H291.579 c-22.974,0-41.666,18.698-41.666,41.68s18.692,41.68,41.666,41.68h186.495V494.173z M454.9,450.485H291.579 c-13.145,0-23.839-10.701-23.839-23.853c0-13.153,10.694-23.853,23.839-23.853H454.9L454.9,450.485L454.9,450.485z"/> </g>
</svg>