<?xml version="1.0" encoding="iso-8859-1"?>
<!-- Uploaded to: SVG Repo, www.svgrepo.com, Generator: SVG Repo Mixer Tools -->
<svg version="1.1" id="Layer_1" xmlns="http://www.w3.org/2000/svg" xmlns:xlink="http://www.w3.org/1999/xlink" 
	 viewBox="0 0 512 512" xml:space="preserve">
<rect x="134.625" y="164.69" style="fill:#C2EDFF;" width="103.298" height="324.536"/>
<rect x="55.349" y="306.578" style="fill:#0F8EE3;" width="103.298" height="182.648"/>
<rect x="237.913" y="233.562" style="fill:#DEDDE1;" width="109.601" height="255.663"/>
<path style="fill:#FFAE18;" d="M327.511,103.468c13.129-0.907,24.807,5.592,31.301,15.732c-0.202-1.983-0.307-3.995-0.307-6.031
	c0-25.537,16.302-47.253,39.062-55.347c-10.127-14.857-27.182-24.615-46.518-24.615c-31.073,0-56.264,25.19-56.264,56.264
	c0,10.208,2.732,19.773,7.485,28.026C308.089,109.547,317.23,104.179,327.511,103.468z"/>
<path style="fill:#7DCE09;" d="M10.435,478.779c0-11.413,9.064-20.704,20.385-21.081c4.534-13.793,17.51-23.755,32.821-23.755
	c16.145,0,29.701,11.075,33.492,26.041c0.297-0.014,0.595-0.025,0.895-0.025c10.394,0,18.819,8.426,18.819,18.819H10.435V478.779z"
	/>
<path style="fill:#0F8EE3;" d="M465.293,146.952c7.047-10.003,11.063-22.294,10.673-35.548c-0.94-31.966-27.852-57.56-59.826-56.968
	c-31.932,0.591-57.636,26.661-57.636,58.734c0,2.036,0.104,4.048,0.307,6.031c-6.494-10.139-18.172-16.639-31.301-15.732
	c-16.082,1.111-29.388,13.605-31.525,29.583c-0.651,4.869-0.242,9.556,0.981,13.9h168.327V146.952z"/>
<circle style="fill:#7DCE09;" cx="303.906" cy="395.663" r="43.607"/>
<path style="fill:#348E00;" d="M403.026,216.1c-54.421,0-98.539,44.118-98.539,98.539c0,13.55,2.736,26.461,7.685,38.211
	c20.126,3.866,35.336,21.559,35.336,42.813c0,0.129-0.008,0.256-0.009,0.385c15.813,10.807,34.931,17.131,55.528,17.131
	c54.421,0,98.539-44.118,98.539-98.539S457.447,216.1,403.026,216.1z"/>
<path d="M500.929,136.516h-18.551c2.899-8.063,4.276-16.637,4.019-25.419c-1.108-37.693-32.695-67.788-70.451-67.094
	c-4.934,0.091-9.778,0.715-14.482,1.807c-12.693-14.687-30.861-23.038-50.417-23.038c-36.778,0-66.699,29.921-66.699,66.699
	c0,9.477,2.053,18.918,5.953,27.526c-2.349,4.491-3.959,9.435-4.659,14.671c-0.216,1.617-0.339,3.235-0.38,4.848h-9.71
	c-5.762,0-10.435,4.673-10.435,10.435s4.673,10.435,10.435,10.435h225.376c5.762,0,10.435-4.673,10.435-10.435
	S506.693,136.516,500.929,136.516z M351.048,43.643c11.015,0,21.383,3.87,29.572,10.824c-4.572,2.863-8.843,6.275-12.715,10.215
	c-9.081,9.239-15.266,20.599-18.09,32.941c-7.006-3.479-14.93-5.124-23.024-4.566c-7.431,0.513-14.392,2.877-20.417,6.633
	c-0.759-3.32-1.155-6.731-1.155-10.218C305.219,64.201,325.778,43.643,351.048,43.643z M306.142,136.516
	c0.032-0.693,0.096-1.387,0.189-2.082c1.489-11.138,10.699-19.782,21.899-20.555c8.733-0.607,17.081,3.592,21.794,10.949
	c2.604,4.067,7.664,5.815,12.223,4.226c4.562-1.59,7.435-6.105,6.946-10.91c-0.167-1.651-0.253-3.325-0.253-4.974
	c0-26.15,21.261-47.816,47.393-48.301c0.301-0.005,0.598-0.008,0.898-0.008c25.957,0,47.54,20.835,48.304,46.85
	c0.259,8.775-1.803,17.255-5.995,24.806H306.142z"/>
<path d="M73.393,96.178c-12.534,0-23.791,5.537-31.479,14.285c-7.688-8.748-18.945-14.285-31.479-14.285
	C4.672,96.178,0,100.851,0,106.613s4.672,10.435,10.435,10.435c11.603,0,21.044,9.441,21.044,21.044
	c0,5.762,4.673,10.435,10.435,10.435s10.435-4.673,10.435-10.435c0-11.603,9.441-21.044,21.044-21.044
	c5.762,0,10.435-4.673,10.435-10.435S79.155,96.178,73.393,96.178z"/>
<path d="M166.106,22.772c-12.534,0-23.791,5.537-31.479,14.285c-7.688-8.748-18.945-14.285-31.479-14.285
	c-5.762,0-10.435,4.673-10.435,10.435s4.673,10.435,10.435,10.435c11.603,0,21.044,9.441,21.044,21.044
	c0,5.762,4.673,10.435,10.435,10.435s10.435-4.673,10.435-10.435c0-11.603,9.441-21.044,21.044-21.044
	c5.762,0,10.435-4.673,10.435-10.435S171.868,22.772,166.106,22.772z"/>
<path d="M501.066,489.227h-0.137c-5.762,0-10.435-4.673-10.435-10.435c0-5.762,4.673-10.435,10.435-10.435h0.137
	c5.762,0,10.435,4.673,10.435,10.435C511.501,484.554,506.828,489.227,501.066,489.227z"/>
<path d="M98.303,342.969c0-5.762-4.673-10.435-10.435-10.435s-10.435,4.673-10.435,10.435v16.696
	c0,5.762,4.673,10.435,10.435,10.435s10.435-4.673,10.435-10.435V342.969z"/>
<path d="M124.391,332.534c-5.762,0-10.435,4.673-10.435,10.435v16.696c0,5.762,4.673,10.435,10.435,10.435
	c5.762,0,10.435-4.673,10.435-10.435v-16.696C134.826,337.207,130.155,332.534,124.391,332.534z"/>
<path d="M87.868,386.802c-5.762,0-10.435,4.673-10.435,10.435v16.696c0,5.762,4.673,10.435,10.435,10.435
	s10.435-4.673,10.435-10.435v-16.696C98.303,391.474,93.631,386.802,87.868,386.802z"/>
<path d="M124.391,386.802c-5.762,0-10.435,4.673-10.435,10.435v16.696c0,5.762,4.673,10.435,10.435,10.435
	c5.762,0,10.435-4.673,10.435-10.435v-16.696C134.826,391.474,130.155,386.802,124.391,386.802z"/>
<path d="M512,314.639c0-60.088-48.886-108.974-108.974-108.974c-21.791,0-42.105,6.433-59.152,17.495
	c-0.194-0.01-0.386-0.029-0.582-0.029h-94.935v-58.437c0-5.762-4.673-10.435-10.435-10.435H134.627
	c-5.762,0-10.435,4.673-10.435,10.435v131.452H55.344c-5.762,0-10.435,4.673-10.435,10.435v121.009
	c-9.194,4.204-16.827,11.437-21.467,20.698C9.853,451.836,0,464.108,0,478.779c0,5.762,4.672,10.435,10.435,10.435h106.412
	c5.762,0,10.435-4.673,10.435-10.435c0-13.799-9.604-25.396-22.476-28.461c-6.804-15.456-21.839-25.945-39.026-26.754v-106.55
	h82.424v161.779c0,5.762,4.673,10.435,10.435,10.435c5.762,0,10.435-4.673,10.435-10.435v-28.338h36.885
	c5.762,0,10.435-4.673,10.435-10.435c0-5.762-4.673-10.435-10.435-10.435h-36.885v-12.49h36.885c5.762,0,10.435-4.673,10.435-10.435
	c0-5.762-4.673-10.435-10.435-10.435h-36.885v-12.49h36.885c5.762,0,10.435-4.673,10.435-10.435c0-5.762-4.673-10.435-10.435-10.435
	h-36.885v-12.489h36.885c5.762,0,10.435-4.673,10.435-10.435c0-5.762-4.673-10.435-10.435-10.435h-36.885v-12.49h36.885
	c5.762,0,10.435-4.673,10.435-10.435c0-5.762-4.673-10.435-10.435-10.435H158.64h-13.577v-12.522h60.897
	c5.762,0,10.435-4.673,10.435-10.435c0-5.762-4.673-10.435-10.435-10.435h-60.897v-12.49h60.897c5.762,0,10.435-4.673,10.435-10.435
	s-4.673-10.435-10.435-10.435h-60.897v-12.522h60.897c5.762,0,10.435-4.673,10.435-10.435s-4.673-10.435-10.435-10.435h-60.897
	v-20.87h82.424v303.666c0,5.762,4.673,10.435,10.435,10.435s10.435-4.673,10.435-10.435V350.407h16.736
	c5.762,0,10.435-4.673,10.435-10.435c0-5.762-4.673-10.435-10.435-10.435h-16.736v-12.522h16.736
	c5.762,0,10.435-4.673,10.435-10.435c0-5.762-4.673-10.435-10.435-10.435h-16.736v-12.522h16.736
	c5.762,0,10.435-4.673,10.435-10.435c0-5.762-4.673-10.435-10.435-10.435h-16.736v-18.751h71.762
	c-16.243,19.037-26.067,43.711-26.067,70.638c0,9.331,1.167,18.488,3.469,27.372c-26.801,3.168-47.662,26.014-47.662,53.653
	c0,26.229,18.787,48.145,43.608,53.02v19.675h-13.601c-5.762,0-10.435,4.673-10.435,10.435c0,5.762,4.673,10.435,10.435,10.435
	h187.304c5.762,0,10.435-4.673,10.435-10.435c0-5.762-4.673-10.435-10.435-10.435h-54.296v-45.195
	C468.364,418.168,512,371.406,512,314.639z M87.017,462.546c0.605,2.391,2.006,4.405,3.869,5.798H29.341
	c0.591-0.121,1.201-0.195,1.826-0.216c4.377-0.146,8.197-3.01,9.566-7.17c3.26-9.917,12.466-16.579,22.907-16.579
	C74.694,444.378,84.307,451.849,87.017,462.546z M303.902,378.835c-5.762,0-10.435,4.673-10.435,10.435v37.872
	c-13.192-4.384-22.737-16.834-22.737-31.48c0-18.291,14.881-33.172,33.171-33.172c18.291,0,33.172,14.881,33.172,33.172
	c0,14.644-9.543,27.094-22.734,31.479v-37.871C314.338,383.508,309.665,378.835,303.902,378.835z M392.003,468.357h-77.666v-19.675
	c19.23-3.779,34.824-17.787,40.878-36.105c11.531,5.644,23.952,9.177,36.787,10.467v45.313H392.003z M402.438,285.219
	c-5.762,0-10.435,4.673-10.435,10.435v43.276l-19.523-19.523c-4.075-4.073-10.68-4.074-14.759,0c-4.075,4.075-4.075,10.683,0,14.759
	l34.282,34.282v33.598c-12.159-1.517-23.813-5.533-34.338-11.872c-2.207-21.78-17.403-39.781-37.698-46.114
	c-3.34-9.416-5.044-19.286-5.044-29.42c0-48.58,39.523-88.104,88.104-88.104s88.104,39.523,88.104,88.104
	c0,45.249-34.295,82.625-78.255,87.539V364.13c0-0.003,0-0.007,0-0.01v-14.638l31.754-31.753c4.075-4.075,4.075-10.683,0-14.759
	c-4.074-4.073-10.679-4.075-14.759,0l-16.996,16.996v-24.311C412.874,289.892,408.202,285.219,402.438,285.219z"/>
</svg>