<!DOCTYPE svg PUBLIC "-//W3C//DTD SVG 1.1//EN" "http://www.w3.org/Graphics/SVG/1.1/DTD/svg11.dtd">
<!-- Uploaded to: SVG Repo, www.svgrepo.com, Transformed by: SVG Repo Mixer Tools -->
<svg version="1.1" id="Layer_1" xmlns="http://www.w3.org/2000/svg" xmlns:xlink="http://www.w3.org/1999/xlink" viewBox="0 0 512.17 512.17" xml:space="preserve" width="800px" height="800px" fill="#000000" stroke="#000000" stroke-width="0.00512168">
<g id="SVGRepo_bgCarrier" stroke-width="0"/>
<g id="SVGRepo_tracerCarrier" stroke-linecap="round" stroke-linejoin="round"/>
<g id="SVGRepo_iconCarrier"> <path d="M512.168,99.14V73.7c0-15.816-12.936-28.752-28.752-28.752h-368.24H28.92c-15.816,0-28.752,12.936-28.752,28.752v25.432h512 V99.14z"/> <g style="opacity:0.25;"> <path style="fill:#FFFFFF;" d="M147.2,44.948h-32.024H28.92c-15.816,0-28.752,12.936-28.752,28.752v25.432h115.888L147.2,44.948z"/> </g> <circle style="fill:#ffffff;" cx="40.696" cy="72.044" r="8.184"/> <circle style="fill:#05C3D6;" cx="65.256" cy="72.044" r="8.184"/> <g> <circle style="fill:#FFFFFF;" cx="89.816" cy="72.044" r="8.184"/> <path style="fill:#FFFFFF;" d="M428.424,86.42H171.04c-7.904,0-14.376-6.472-14.376-14.376l0,0c0-7.904,6.472-14.376,14.376-14.376 h257.376c7.904,0,14.376,6.472,14.376,14.376l0,0C442.8,79.948,436.328,86.42,428.424,86.42z"/> </g> <path d="M180.744,65.484l1.968,7.56c0.432,1.672,0.832,3.2,1.112,4.752h0.096c0.336-1.512,0.832-3.112,1.32-4.72l2.432-7.592h2.28 l2.304,7.456c0.552,1.784,0.984,3.344,1.32,4.856h0.096c0.24-1.512,0.648-3.08,1.144-4.832l2.12-7.488h2.68l-4.8,14.888h-2.464 l-2.288-7.096c-0.52-1.656-0.952-3.144-1.32-4.888h-0.064c-0.368,1.784-0.832,3.328-1.352,4.92l-2.4,7.08h-2.464l-4.496-14.888 h2.776V65.484z"/> <path d="M203.712,65.484l1.968,7.56c0.432,1.672,0.832,3.2,1.112,4.752h0.096c0.336-1.512,0.832-3.112,1.32-4.72l2.432-7.592h2.28 l2.304,7.456c0.552,1.784,0.984,3.344,1.32,4.856h0.096c0.24-1.512,0.648-3.08,1.144-4.832l2.12-7.488h2.68l-4.8,14.888h-2.464 l-2.288-7.096c-0.52-1.656-0.952-3.144-1.32-4.888h-0.064c-0.368,1.784-0.832,3.328-1.352,4.92l-2.4,7.08h-2.456l-4.496-14.888 h2.768V65.484z"/> <path d="M226.68,65.484l1.968,7.56c0.432,1.672,0.832,3.2,1.112,4.752h0.096c0.336-1.512,0.832-3.112,1.32-4.72l2.432-7.592h2.28 l2.304,7.456c0.552,1.784,0.984,3.344,1.32,4.856h0.096c0.24-1.512,0.648-3.08,1.144-4.832l2.12-7.488h2.68l-4.8,14.888h-2.464 L236,73.268c-0.52-1.656-0.952-3.144-1.32-4.888h-0.064c-0.368,1.784-0.832,3.328-1.352,4.92l-2.4,7.08H228.4l-4.48-14.896H226.68z"/> <path d="M246.36,78.78c0-1.144,0.768-1.936,1.84-1.936s1.816,0.8,1.816,1.936c0,1.112-0.704,1.936-1.84,1.936 C247.096,80.716,246.36,79.892,246.36,78.78z"/> <g> <rect x="461.496" y="70.412" style="fill:#FFFFFF;" width="23" height="4"/> <polygon style="fill:#FFFFFF;" points="474.76,84.34 471.92,81.516 481.024,72.412 471.92,63.308 474.76,60.484 486.68,72.412 "/> </g> <polygon style="fill:#C9C9C9;" points="429.984,67.396 422.336,77.3 414.68,67.396 "/> <rect y="99.14" style="fill:#000000;" width="512" height="368.08"/> <rect x="16" y="115.188" style="fill:#ffffff;" width="480" height="336"/> <g style="opacity:0.35;"> <path style="fill:#FFFFFF;" d="M492,119.188v328H20v-328L492,119.188 M496,115.188H16v336h480V115.188L496,115.188z"/> </g> <rect x="384.56" y="220.932" style="fill:#05C3D6;" width="28.56" height="14.28"/> <rect x="84.616" y="361.068" width="85.688" height="14.28"/> <rect x="113.2" y="275.38" style="fill:#05C3D6;" width="57.128" height="14.28"/> <rect x="127.464" y="246.788" width="28.56" height="14.28"/> <rect x="198.872" y="361.068" style="fill:#05C3D6;" width="57.128" height="14.28"/> <g> <rect x="113.2" y="332.508" style="fill:#FFFFFF;" width="85.688" height="14.28"/> <rect x="241.68" y="332.508" style="fill:#FFFFFF;" width="71.408" height="14.28"/> </g> <rect x="270.28" y="218.252" width="71.408" height="14.28"/> <rect x="284.56" y="189.668" style="fill:#FFFFFF;" width="57.128" height="14.28"/> <rect x="166.504" y="303.94" width="118.064" height="14.28"/> <g> <rect x="213.152" y="218.252" style="fill:#05C3D6;" width="28.56" height="14.28"/> <rect x="227.44" y="189.668" style="fill:#05C3D6;" width="28.56" height="14.28"/> <rect x="313.12" y="161.124" style="fill:#05C3D6;" width="28.56" height="14.28"/> </g> <rect x="241.68" y="161.124" style="fill:#FFFFFF;" width="28.56" height="14.28"/> <rect x="213.152" y="275.38" width="85.688" height="14.28"/> <rect x="184.56" y="246.788" style="fill:#FFFFFF;" width="85.688" height="14.28"/> <rect x="113.2" y="161.124" width="85.688" height="14.28"/> <g> <rect x="370.24" y="363.748" style="fill:#FFFFFF;" width="57.128" height="14.28"/> <rect x="327.408" y="389.668" style="fill:#FFFFFF;" width="28.56" height="14.28"/> </g> <rect x="256" y="389.668" style="fill:#05C3D6;" width="28.56" height="14.28"/> <rect x="284.56" y="361.068" width="57.128" height="14.28"/> <rect x="127.464" y="389.668" style="fill:#FFFFFF;" width="85.688" height="14.28"/> <rect x="98.904" y="218.252" width="85.688" height="14.28"/> <rect x="84.616" y="189.668" style="fill:#FFFFFF;" width="85.688" height="14.28"/> </g>
</svg>